<svg xmlns="http://www.w3.org/2000/svg" viewBox="0 0 36 36" width="36" height="36">
  <defs>
    <linearGradient id="stone" x1="0" y1="0" x2="1" y2="1">
      <stop offset="0%" stop-color="#d4d0cb"/>
      <stop offset="40%" stop-color="#b8b3ac"/>
      <stop offset="100%" stop-color="#918c85"/>
    </linearGradient>
    <linearGradient id="shadow" x1="0" y1="0" x2="0" y2="1">
      <stop offset="0%" stop-color="#a09a93"/>
      <stop offset="100%" stop-color="#7a756e"/>
    </linearGradient>
    <linearGradient id="hair" x1="0" y1="0" x2="0" y2="1">
      <stop offset="0%" stop-color="#9e9990"/>
      <stop offset="100%" stop-color="#807b74"/>
    </linearGradient>
  </defs>
  <circle cx="18" cy="18" r="17" fill="#fafaf9" stroke="#2a2a2a" stroke-width="0.6"/>
  <path d="M14.5 24.5 L14 28.5 Q14 30 16 30.5 L20 30.5 Q22 30 21.5 28.5 L21.5 24.5" fill="url(#stone)" stroke="#2a2a2a" stroke-width="0.7" stroke-linejoin="round"/>
  <path d="M10 30.5 Q12 28.5 14 29.5 L15.5 30 L20.5 30 L22 29.5 Q24 28.5 26 30.5 L26 33 L10 33 Z" fill="url(#shadow)" stroke="#2a2a2a" stroke-width="0.7" stroke-linejoin="round"/>
  <path d="M13.2 16 Q12.5 12.5 13 10 Q13.5 7 16 5.5 Q18 4.5 20 5.5 Q22.5 7 23 10 Q23.5 12.5 22.8 16 Q22.5 18 22 20 Q21.5 22 21.5 24 L14.5 24 Q14.5 22 14 20 Q13.5 18 13.2 16 Z" fill="url(#stone)" stroke="#2a2a2a" stroke-width="0.7" stroke-linejoin="round"/>
  <path d="M13.5 10.5 Q14.5 8.5 16 7 Q18 5.5 20 7 Q21.5 8.5 22.5 10.5" fill="none" stroke="#2a2a2a" stroke-width="0.5"/>
  <path d="M13 10.5 Q12.5 8 14 6 Q15.5 4 18 3.8 Q20.5 4 22 6 Q23.5 8 23 10.5 Q22.5 8 21 6.8 Q19 5.5 17 5.5 Q15 5.5 14 6.8 Q13 8 13 10.5 Z" fill="url(#hair)" stroke="#2a2a2a" stroke-width="0.6" stroke-linejoin="round"/>
  <ellipse cx="15.8" cy="14" rx="1.4" ry="0.9" fill="none" stroke="#2a2a2a" stroke-width="0.55"/>
  <ellipse cx="20.2" cy="14" rx="1.4" ry="0.9" fill="none" stroke="#2a2a2a" stroke-width="0.55"/>
  <path d="M18 13 L17.8 17 Q17.8 17.8 18 17.8 Q18.2 17.8 18.2 17 L18 13" fill="none" stroke="#2a2a2a" stroke-width="0.5" stroke-linecap="round"/>
  <path d="M16.8 17.5 Q18 18.2 19.2 17.5" fill="none" stroke="#2a2a2a" stroke-width="0.45" stroke-linecap="round"/>
  <path d="M16 20 Q17 20.8 18 20.8 Q19 20.8 20 20" fill="none" stroke="#2a2a2a" stroke-width="0.5" stroke-linecap="round"/>
  <path d="M15.5 22 Q18 23.5 20.5 22" fill="none" stroke="#2a2a2a" stroke-width="0.35" stroke-linecap="round" opacity="0.5"/>
  <path d="M13 13 Q12 13.5 12 15 Q12 16.5 13 17" fill="none" stroke="#2a2a2a" stroke-width="0.5" stroke-linecap="round"/>
  <path d="M23 13 Q24 13.5 24 15 Q24 16.5 23 17" fill="none" stroke="#2a2a2a" stroke-width="0.5" stroke-linecap="round"/>
  <path d="M14 12.5 Q16 11.8 18 12 Q20 11.8 22 12.5" fill="none" stroke="#2a2a2a" stroke-width="0.45" stroke-linecap="round" opacity="0.6"/>
</svg>
